<svg width="14" height="12" viewBox="0 0 14 12" fill="none" xmlns="http://www.w3.org/2000/svg">
<path d="M0.353059 5.29341L5.30864 0.293731C5.50067 0.0968685 5.75464 0 6.00862 0C6.26259 0 6.51595 0.0976496 6.70921 0.29295C7.09637 0.683549 7.09637 1.31632 6.70921 1.70692L3.4441 4.99967L12.9464 4.99967C13.4937 4.99967 13.9375 5.44652 13.9375 5.99961C13.9375 6.5527 13.4937 6.99954 12.9464 6.99954L3.4441 6.99954L6.70859 10.2931C7.09575 10.6837 7.09575 11.3165 6.70859 11.7071C6.32144 12.0976 5.69425 12.0976 5.30709 11.7071L0.351511 6.70738C-0.0340958 6.31521 -0.0340958 5.684 0.353059 5.29341Z" fill="#379970"/>
</svg>
