<svg width="14" height="12" viewBox="0 0 14 12" fill="none" xmlns="http://www.w3.org/2000/svg">
<path d="M13.7068 6.70659L8.7066 11.7063C8.51284 11.9031 8.25657 12 8.00031 12C7.74405 12 7.48842 11.9024 7.29341 11.7071C6.90276 11.3165 6.90276 10.6837 7.29341 10.2931L10.5879 7.00033H0.999995C0.447783 7.00033 0 6.55348 0 6.00039C0 5.4473 0.447783 5.00046 0.999995 5.00046H10.5879L7.29403 1.70692C6.90339 1.31632 6.90339 0.683549 7.29403 0.29295C7.68467 -0.0976499 8.31752 -0.0976499 8.70816 0.29295L13.7084 5.29262C14.0975 5.68479 14.0975 6.316 13.7068 6.70659Z" fill="#000000" fill-opacity="0.5"/>
</svg>
