<svg width="21" height="24" viewBox="0 0 21 24" fill="none" xmlns="http://www.w3.org/2000/svg">
<path d="M20.9578 12C20.9578 12.8297 20.3297 13.5 19.5 13.5H5.12345L10.0641 18.4406C10.65 19.0266 10.65 19.9758 10.0641 20.5617C9.76876 20.8547 9.38438 21 9.00001 21C8.61563 21 8.2322 20.8535 7.9397 20.5605L0.439697 13.0605C-0.14624 12.4746 -0.14624 11.5254 0.439697 10.9395L7.9397 3.43945C8.52563 2.85352 9.47485 2.85352 10.0608 3.43945C10.6467 4.02539 10.6467 4.97461 10.0608 5.56055L5.12345 10.5H19.5C20.3297 10.5 20.9578 11.1703 20.9578 12Z" fill="white"/>
</svg>
