<svg width="25" height="25" viewBox="0 0 25 25" fill="none" xmlns="http://www.w3.org/2000/svg">
<path d="M20.613 10.7414L9.21399 22.1365L7.55694 20.4793L7.72802 20.3082H5.47462C5.04447 20.3082 4.69253 19.9562 4.69253 19.526V17.2724L4.52194 17.4435C4.29073 17.6782 4.12112 17.9617 4.02873 18.2746L2.90545 22.0974L6.72597 20.973C6.99481 20.8801 7.32231 20.709 7.55694 20.4793L9.21399 22.1365C8.70563 22.6449 8.07507 23.0213 7.38586 23.2217L1.50405 24.9523C1.09247 25.0745 0.647169 24.962 0.34362 24.615C0.0400613 24.3559 -0.0734298 23.911 0.0476964 23.4955L1.77778 17.6146C1.98112 16.9254 2.35408 16.2947 2.86293 15.7863L14.2585 4.38833L20.613 10.7414ZM24.0835 2.84405C25.3055 4.06569 25.3055 6.04846 24.0835 7.27058L21.7177 9.63661L15.3632 3.28255L17.729 0.916519C18.951 -0.305506 20.9356 -0.305506 22.1576 0.916519L24.0835 2.84405Z" fill="white"/>
</svg>
