<svg width="25" height="25" viewBox="0 0 25 25" fill="none" xmlns="http://www.w3.org/2000/svg">
<path d="M25 12.5C25 13.5631 24.1388 14.4237 23.0769 14.4237H14.4231V23.0775C14.4231 24.1406 13.5619 25 12.5 25C11.4381 25 10.5769 24.1406 10.5769 23.0775V14.4237H1.92308C0.861178 14.4237 0 13.5631 0 12.5C0 11.4369 0.861178 10.5775 1.92308 10.5775H10.5769V1.92368C10.5769 0.860577 11.4381 0 12.5 0C13.5619 0 14.4231 0.860577 14.4231 1.92368V10.5775H23.0769C24.1406 10.5769 25 11.4363 25 12.5Z" fill="white"/>
</svg>
