<svg width="19" height="20" viewBox="0 0 19 20" fill="none" xmlns="http://www.w3.org/2000/svg">
<path d="M18.5658 16.4654L14.1238 12.0234C15.1339 10.5238 15.6323 8.65017 15.3655 6.65369C14.9105 3.25782 12.1273 0.494284 8.72808 0.0639266C3.67416 -0.575579 -0.575609 3.67418 0.0639337 8.7281C0.494402 12.1288 3.25831 14.9142 6.65456 15.367C8.65104 15.6337 10.5251 15.1355 12.0243 14.1253L16.4663 18.5673C17.0459 19.1469 17.9859 19.1469 18.5656 18.5673C19.1447 17.9869 19.1447 17.0443 18.5658 16.4654ZM2.93531 7.71873C2.93531 5.09955 5.06613 2.96873 7.68531 2.96873C10.3045 2.96873 12.4353 5.09955 12.4353 7.71873C12.4353 10.3379 10.3045 12.4687 7.68531 12.4687C5.06613 12.4687 2.93531 10.3386 2.93531 7.71873Z" fill="white"/>
</svg>
